HIERARCHY
ROOT Hips
{
	OFFSET 0.000000 0.000000 0.000000
	CHANNELS 6 Xposition Yposition Zposition Zrotation Xrotation Yrotation
	JOINT Spine
	{
		OFFSET 0.000000 -0.000000 0.070167
		CHANNELS 6 Xposition Yposition Zposition Zrotation Xrotation Yrotation
		JOINT Spine1
		{
			OFFSET 0.000000 -0.000000 0.166666
			CHANNELS 6 Xposition Yposition Zposition Zrotation Xrotation Yrotation
			JOINT Neck
			{
				OFFSET 0.000000 -0.000000 0.183780
				CHANNELS 6 Xposition Yposition Zposition Zrotation Xrotation Yrotation
				JOINT Head
				{
					OFFSET 0.000000 -0.017114 0.132633
					CHANNELS 6 Xposition Yposition Zposition Zrotation Xrotation Yrotation
					End Site
					{
						OFFSET 0.000000 -0.000000 0.171140
					}
				}
			}
			JOINT LeftShoulder
			{
				OFFSET 0.034466 0.004091 0.144174
				CHANNELS 6 Xposition Yposition Zposition Zrotation Xrotation Yrotation
				JOINT LeftArm
				{
					OFFSET 0.121044 0.000000 0.000000
					CHANNELS 6 Xposition Yposition Zposition Zrotation Xrotation Yrotation
					JOINT LeftForeArm
					{
						OFFSET 0.257070 0.000000 0.000000
						CHANNELS 6 Xposition Yposition Zposition Zrotation Xrotation Yrotation
						JOINT LeftHand
						{
							OFFSET 0.224060 0.000000 0.000000
							CHANNELS 6 Xposition Yposition Zposition Zrotation Xrotation Yrotation
							End Site
							{
								OFFSET 0.128355 0.000000 0.000000
							}
						}
					}
				}
			}
			JOINT RightShoulder
			{
				OFFSET -0.033538 0.004091 0.144174
				CHANNELS 6 Xposition Yposition Zposition Zrotation Xrotation Yrotation
				JOINT RightArm
				{
					OFFSET -0.121044 0.000000 0.000000
					CHANNELS 6 Xposition Yposition Zposition Zrotation Xrotation Yrotation
					JOINT RightForeArm
					{
						OFFSET -0.257070 0.000000 0.000000
						CHANNELS 6 Xposition Yposition Zposition Zrotation Xrotation Yrotation
						JOINT RightHand
						{
							OFFSET -0.224060 0.000000 0.000000
							CHANNELS 6 Xposition Yposition Zposition Zrotation Xrotation Yrotation
							End Site
							{
								OFFSET -0.128355 0.000000 0.000000
							}
						}
					}
				}
			}
		}
	}
	JOINT LeftUpLeg
	{
		OFFSET 0.085570 0.000000 0.000000
		CHANNELS 6 Xposition Yposition Zposition Zrotation Xrotation Yrotation
		JOINT LeftLeg
		{
			OFFSET 0.000000 0.000000 -0.385526
			CHANNELS 6 Xposition Yposition Zposition Zrotation Xrotation Yrotation
			JOINT LeftFoot
			{
				OFFSET 0.000000 0.000000 -0.365921
				CHANNELS 6 Xposition Yposition Zposition Zrotation Xrotation Yrotation
				JOINT LeftToeBase
				{
					OFFSET 0.000000 -0.128355 -0.055620
					CHANNELS 6 Xposition Yposition Zposition Zrotation Xrotation Yrotation
					End Site
					{
						OFFSET 0.000000 -0.034228 0.000000
					}
				}
			}
		}
	}
	JOINT RightUpLeg
	{
		OFFSET -0.085570 0.000000 0.000000
		CHANNELS 6 Xposition Yposition Zposition Zrotation Xrotation Yrotation
		JOINT RightLeg
		{
			OFFSET 0.000000 0.000000 -0.385526
			CHANNELS 6 Xposition Yposition Zposition Zrotation Xrotation Yrotation
			JOINT RightFoot
			{
				OFFSET 0.000000 0.000000 -0.365921
				CHANNELS 6 Xposition Yposition Zposition Zrotation Xrotation Yrotation
				JOINT RightToeBase
				{
					OFFSET 0.000000 -0.128355 -0.055620
					CHANNELS 6 Xposition Yposition Zposition Zrotation Xrotation Yrotation
					End Site
					{
						OFFSET 0.000000 -0.034228 0.000000
					}
				}
			}
		}
	}
}
MOTION
Frames: 8
Frame Time: 0.016667
0.216365 0.061161 0.812237 -46.599191 -6.424651 -0.852135 0.000000 -0.000000 0.070167 -2.332454 -0.467613 -1.142290 0.000000 -0.000000 0.166666 -0.770464 0.061615 -8.467447 0.000000 -0.000000 0.183780 5.935948 5.791337 -11.127101 0.000000 -0.017114 0.132633 7.527077 7.000457 7.145019 0.034466 0.004091 0.144174 -6.155489 9.485478 -6.120880 0.121044 0.000000 0.000000 -48.773428 -7.239135 67.925309 0.257070 0.000000 0.000000 -51.326157 12.155365 -15.433157 0.224060 -0.000000 0.000000 -5.821277 3.966346 15.766182 -0.033538 0.004091 0.144174 -18.132532 5.867365 4.267710 -0.121044 0.000000 0.000000 21.124853 3.850870 -57.264067 -0.257070 0.000000 -0.000000 65.001025 28.814198 47.344566 -0.224060 -0.000000 0.000000 12.015379 -1.049378 16.187736 0.085570 -0.000000 -0.000000 17.251443 -3.928149 -9.191210 0.000000 0.000000 -0.385526 25.883060 27.594005 -8.875442 -0.000000 0.000000 -0.365921 6.503853 -1.769528 2.855991 -0.000000 -0.128355 -0.055620 0.000001 0.000004 -0.000000 -0.085570 0.000000 -0.000000 -4.049712 3.613524 17.887985 -0.000000 0.000000 -0.385526 17.060645 21.180367 -10.148874 0.000000 0.000000 -0.365921 -22.471766 5.595798 -12.036533 -0.000000 -0.128355 -0.055620 0.000001 0.000003 0.000002 
0.218563 0.065182 0.807123 -46.359274 -7.304120 0.155388 0.000000 0.000000 0.070167 -4.616526 2.064928 -2.810634 -0.000000 -0.000000 0.166666 -1.633320 -1.079812 -8.242740 0.000000 -0.000000 0.183780 6.920616 5.632953 -12.143404 0.000000 -0.017114 0.132633 8.714182 7.703502 8.879905 0.034466 0.004091 0.144174 -6.400428 9.662996 -6.249466 0.121044 0.000000 -0.000000 -49.183120 -7.322211 67.984520 0.257070 -0.000000 0.000000 -53.016789 13.333251 -14.503842 0.224060 0.000000 -0.000000 -5.000294 5.434590 16.589158 -0.033538 0.004091 0.144174 -17.696537 5.720173 3.711958 -0.121044 -0.000000 0.000000 21.940781 3.598395 -56.678399 -0.257070 0.000000 -0.000000 63.278260 27.772210 48.259542 -0.224060 -0.000000 0.000000 12.058619 -1.655661 17.687473 0.085570 0.000000 0.000000 13.139436 -4.712685 -10.726740 0.000000 0.000000 -0.385526 27.212461 31.084266 -10.112237 -0.000000 0.000000 -0.365921 6.541297 -3.535872 3.355316 0.000000 -0.128355 -0.055620 0.000000 -0.000003 0.000000 -0.085570 0.000000 0.000000 -5.222839 3.353996 17.132018 -0.000000 0.000000 -0.385526 18.585614 22.334556 -11.150273 0.000000 0.000000 -0.365921 -23.393716 4.103186 -12.293424 0.000000 -0.128355 -0.055620 -0.000002 0.000003 -0.000002 
0.217645 0.066921 0.803559 -49.120671 -7.686589 -0.271084 -0.000000 -0.000000 0.070167 -4.834008 2.664664 -2.856406 -0.000000 -0.000000 0.166666 -1.688243 -0.722559 -8.630572 -0.000000 -0.000000 0.183780 7.919111 5.197022 -12.914233 0.000000 -0.017114 0.132633 9.871838 8.815003 10.363124 0.034466 0.004091 0.144174 -6.558534 9.888891 -6.443669 0.121044 -0.000000 -0.000000 -49.214634 -7.496379 68.015632 0.257070 0.000000 0.000000 -55.146821 14.164984 -13.186245 0.224060 -0.000000 -0.000000 -4.127141 6.774223 16.432668 -0.033538 0.004091 0.144174 -17.495005 5.428615 3.287695 -0.121044 -0.000000 -0.000000 23.087680 3.249291 -55.883129 -0.257070 0.000000 -0.000000 61.394521 26.621654 49.063353 -0.224060 0.000000 0.000000 12.074221 -2.212264 18.699566 0.085570 0.000000 0.000000 12.318650 -4.498950 -11.391629 0.000000 0.000000 -0.385526 28.052586 33.424856 -10.500354 -0.000000 0.000000 -0.365921 6.405267 -3.626481 4.216756 0.000000 -0.128355 -0.055620 -0.000001 0.000001 -0.000001 -0.085570 0.000000 0.000000 -2.954682 2.606273 17.366495 -0.000000 0.000000 -0.385526 19.860078 23.509060 -12.287311 -0.000000 0.000000 -0.365921 -23.755951 2.072064 -11.759690 0.000000 -0.128355 -0.055620 0.000001 0.000005 -0.000001 
0.216907 0.068353 0.799805 -51.960749 -8.162083 -0.809496 -0.000000 -0.000000 0.070167 -5.052798 3.372692 -2.712460 -0.000000 -0.000000 0.166666 -1.729028 -0.213352 -9.266587 -0.000000 -0.000000 0.183780 8.947647 4.965288 -13.571282 -0.000000 -0.017114 0.132633 11.036265 9.624946 12.126814 0.034466 0.004091 0.144174 -6.929380 10.020093 -6.396604 0.121044 -0.000000 -0.000000 -48.818548 -7.504871 68.057125 0.257070 -0.000000 -0.000000 -57.652766 14.193488 -12.042319 0.224060 -0.000000 -0.000000 -2.981279 7.256758 15.455456 -0.033538 0.004091 0.144174 -17.518920 5.305767 3.068851 -0.121044 -0.000000 -0.000000 24.667095 2.547344 -54.840367 -0.257070 0.000000 0.000000 59.346182 25.214629 49.870066 -0.224060 0.000000 0.000000 12.253283 -2.866594 19.894350 0.085570 0.000000 -0.000000 11.630032 -4.015287 -11.929065 0.000000 0.000000 -0.385526 28.256383 35.688893 -10.585876 0.000000 0.000000 -0.365921 6.504974 -3.638552 5.307969 0.000000 -0.128355 -0.055620 0.000001 -0.000001 0.000000 -0.085570 0.000000 0.000000 -0.996487 1.841685 17.822397 0.000000 0.000000 -0.385526 21.457113 24.736498 -13.551008 -0.000000 0.000000 -0.365921 -23.595420 0.121803 -11.294156 0.000000 -0.128355 -0.055620 0.000000 0.000006 -0.000001 
0.211906 0.070414 0.796263 -58.106072 -7.189931 -2.488496 -0.000000 -0.000000 0.070167 -3.116684 1.156176 -0.800753 0.000000 -0.000000 0.166666 -0.854362 1.954053 -10.985984 0.000000 -0.000000 0.183780 10.116733 4.760963 -14.264146 0.000000 -0.017114 0.132633 12.305415 10.621146 13.993902 0.034466 0.004091 0.144174 -7.252329 10.129536 -6.400850 0.121044 -0.000000 -0.000000 -48.418275 -7.126692 68.297800 0.257070 0.000000 0.000000 -59.984026 15.243575 -11.197380 0.224060 0.000000 0.000000 -2.946540 8.514307 15.074537 -0.033538 0.004091 0.144174 -17.617366 5.312513 2.786968 -0.121044 0.000000 -0.000000 26.182103 1.454557 -53.465761 -0.257070 -0.000000 -0.000000 57.650615 23.674879 50.034790 -0.224060 0.000000 0.000000 12.678310 -3.431995 20.391079 0.085570 0.000000 0.000000 15.134210 -3.713844 -11.966819 -0.000000 0.000000 -0.385526 27.632294 36.955620 -9.909210 -0.000000 0.000000 -0.365921 5.831560 -2.682485 6.563697 0.000000 -0.128355 -0.055620 -0.000000 0.000001 0.000000 -0.085570 0.000000 0.000000 4.153356 -0.499447 18.691603 0.000000 0.000000 -0.385526 22.651557 26.543491 -14.478256 0.000000 0.000000 -0.365921 -22.791320 -2.878616 -11.074630 0.000000 -0.128355 -0.055620 -0.000002 0.000000 0.000001 
0.215744 0.070802 0.792012 -58.031131 -8.871065 -2.050839 0.000000 -0.000000 0.070167 -5.507713 4.977201 -2.252875 -0.000000 -0.000000 0.166666 -1.811057 0.629659 -10.836805 0.000000 -0.000000 0.183780 11.275187 4.355604 -14.378421 -0.000000 -0.017114 0.132633 13.473821 11.871925 15.456264 0.034466 0.004091 0.144174 -7.448530 10.185438 -6.150107 0.121044 -0.000000 0.000000 -48.042393 -6.662042 68.565824 0.257070 0.000000 -0.000000 -62.474934 15.255817 -10.975304 0.224060 -0.000000 -0.000000 -3.126648 8.317090 14.851135 -0.033538 0.004091 0.144174 -17.683384 4.759772 2.871774 -0.121044 -0.000000 0.000000 27.517517 0.652787 -52.239141 -0.257070 0.000000 -0.000000 56.211917 22.133202 49.872959 -0.224060 0.000000 0.000000 13.105098 -3.943803 20.751397 0.085570 0.000000 0.000000 10.959193 -2.901193 -12.607745 -0.000000 0.000000 -0.385526 29.520088 39.494995 -11.791450 0.000000 0.000000 -0.365921 4.430931 -3.182141 7.650106 0.000000 -0.128355 -0.055620 -0.000000 -0.000002 -0.000002 -0.085570 0.000000 -0.000000 1.818817 -0.376389 18.876780 0.000000 0.000000 -0.385526 25.070524 27.320482 -15.744027 0.000000 0.000000 -0.365921 -22.063466 -3.887768 -10.626845 0.000000 -0.128355 -0.055620 -0.000002 -0.000004 0.000002 
0.215458 0.071635 0.788017 -61.155840 -9.134856 -2.780388 0.000000 -0.000000 0.070167 -6.117158 5.409097 -2.073052 -0.000000 -0.000000 0.166666 -1.900885 1.771929 -11.178011 0.000000 -0.000000 0.183780 12.686548 4.018220 -15.093733 0.000000 -0.017114 0.132633 14.915694 13.146260 17.303390 0.034466 0.004091 0.144174 -7.483873 10.250314 -6.296613 0.121044 0.000000 0.000000 -47.095852 -6.271948 69.040085 0.257070 -0.000000 -0.000000 -64.881470 15.080569 -10.813293 0.224060 0.000000 -0.000000 -3.196518 7.951273 13.496054 -0.033538 0.004091 0.144174 -16.710205 4.574716 2.305162 -0.121044 0.000000 0.000000 28.600859 -0.303825 -50.462315 -0.257070 -0.000000 -0.000000 54.569820 20.262356 49.783637 -0.224060 -0.000000 0.000000 14.084602 -4.549835 21.705125 0.085570 0.000000 -0.000000 10.894481 -2.193774 -12.689177 -0.000000 0.000000 -0.385526 29.248547 41.134889 -11.978123 0.000000 0.000000 -0.365921 3.551880 -3.184094 8.542647 0.000000 -0.128355 -0.055620 0.000001 0.000001 0.000002 -0.085570 0.000000 -0.000000 2.527940 -1.845634 19.541036 -0.000000 0.000000 -0.385526 26.941210 28.717121 -16.635547 -0.000000 0.000000 -0.365921 -20.567028 -5.730610 -10.498277 -0.000000 -0.128355 -0.055620 -0.000000 0.000002 -0.000001 
0.210566 0.074495 0.783353 -67.859138 -7.248634 -4.367731 0.000000 -0.000000 0.070167 -3.919666 2.657177 0.039322 0.000000 -0.000000 0.166666 -0.836002 3.964819 -13.589578 0.000000 -0.000000 0.183780 14.022333 3.897388 -15.120205 0.000000 -0.017114 0.132633 16.161300 14.248429 18.706297 0.034466 0.004091 0.144174 -7.636537 10.351558 -6.094537 0.121044 -0.000000 0.000000 -46.338811 -5.755152 69.753594 0.257070 -0.000000 -0.000000 -67.225925 14.743846 -10.771777 0.224060 0.000000 0.000000 -3.260062 7.356338 11.946519 -0.033538 0.004091 0.144174 -16.561059 4.101812 2.429650 -0.121044 0.000000 -0.000000 30.025693 -1.087961 -48.690083 -0.257070 0.000000 0.000000 53.227941 18.173417 49.110925 -0.224060 -0.000000 0.000000 15.080206 -5.056434 23.510573 0.085570 0.000000 -0.000000 15.422803 -2.383673 -12.751430 0.000000 0.000000 -0.385526 27.539541 42.064618 -10.886084 -0.000000 0.000000 -0.365921 2.037384 -2.574046 9.330959 0.000000 -0.128355 -0.055620 -0.000003 0.000001 -0.000002 -0.085570 0.000000 -0.000000 7.824153 -5.264824 20.266034 0.000000 0.000000 -0.385526 27.483382 30.955216 -17.101948 0.000000 0.000000 -0.365921 -18.414706 -8.721123 -9.914651 -0.000000 -0.128355 -0.055620 0.000000 0.000003 -0.000001 
